# xmcd CD database file
#
# Track frame offsets:
#	150
#	20427
#	62360
#	76225
#	97805
#	109052
#	130390
#	153667
#	187575
#	204760
#	228872
#
# Disc length: 3308 seconds
#
# Revision: 0
# Processed by: cddbd v1.4PL0 Copyright (c) Steve Scherf et al.
# Submitted via: CDex 1.40Beta8
#
DISCID=750cea0b
DTITLE=Little Al Thomas - South Side Story
DYEAR=1999
DGENRE=Blues
TTITLE0=Memphis Girl
TTITLE1=Nobody Sleepin' In My Bed
TTITLE2=Bad Luck Boby
TTITLE3=Somebody changed the Lock Of My Door
TTITLE4=Stepping Out
TTITLE5=Stranded In St. Louis
TTITLE6=Feel So Good
TTITLE7=Your Breakin' My Heart
TTITLE8=I Gotta Find My Baby
TTITLE9=Rollin' and Tumblin'
TTITLE10=Just Like A Fish
EXTD=YEAR: 1999 ID3G: 0
EXTT0=
EXTT1=
EXTT2=
EXTT3=
EXTT4=
EXTT5=
EXTT6=
EXTT7=
EXTT8=
EXTT9=
EXTT10=
PLAYORDER=
